<mxfile host="app.diagrams.net" modified="2023-06-08T09:43:07.984Z" agent="Mozilla/5.0 (Windows NT 10.0; Win64; x64) AppleWebKit/537.36 (KHTML, like Gecko) Chrome/114.0.0.0 Safari/537.36" etag="7AZe_2ssaH4zplF_hXKr" version="21.3.7" type="github">
  <diagram name="Strona-1" id="uGcpRZU6NgpHU1xebrsN">
    <mxGraphModel dx="1450" dy="573" grid="1" gridSize="10" guides="1" tooltips="1" connect="1" arrows="1" fold="1" page="0" pageScale="1" pageWidth="827" pageHeight="1169" background="none" math="0" shadow="0">
      <root>
        <mxCell id="0" />
        <mxCell id="1" parent="0" />
        <mxCell id="SnsUbLCSZcXVaI-WfpS3-2" value="" style="edgeStyle=orthogonalEdgeStyle;rounded=0;orthogonalLoop=1;jettySize=auto;html=1;" edge="1" parent="1" source="ti8bBpOAtPQ81vVUXoVw-1" target="SnsUbLCSZcXVaI-WfpS3-1">
          <mxGeometry relative="1" as="geometry" />
        </mxCell>
        <mxCell id="ti8bBpOAtPQ81vVUXoVw-1" value="START" style="strokeWidth=2;html=1;shape=mxgraph.flowchart.start_1;whiteSpace=wrap;" parent="1" vertex="1">
          <mxGeometry x="140" y="60" width="100" height="60" as="geometry" />
        </mxCell>
        <mxCell id="tffMLPbtxx34B7XqvIBA-7" value="TAK" style="edgeStyle=orthogonalEdgeStyle;rounded=0;orthogonalLoop=1;jettySize=auto;html=1;" parent="1" source="ti8bBpOAtPQ81vVUXoVw-8" target="tffMLPbtxx34B7XqvIBA-6" edge="1">
          <mxGeometry relative="1" as="geometry" />
        </mxCell>
        <mxCell id="tffMLPbtxx34B7XqvIBA-32" value="NIE" style="edgeStyle=none;rounded=0;orthogonalLoop=1;jettySize=auto;html=1;" parent="1" source="ti8bBpOAtPQ81vVUXoVw-8" target="tffMLPbtxx34B7XqvIBA-31" edge="1">
          <mxGeometry relative="1" as="geometry" />
        </mxCell>
        <mxCell id="ti8bBpOAtPQ81vVUXoVw-8" value="Kolejka != nil" style="rhombus;whiteSpace=wrap;html=1;strokeWidth=2;" parent="1" vertex="1">
          <mxGeometry x="140" y="280" width="100" height="100" as="geometry" />
        </mxCell>
        <mxCell id="tffMLPbtxx34B7XqvIBA-9" value="" style="edgeStyle=orthogonalEdgeStyle;rounded=0;orthogonalLoop=1;jettySize=auto;html=1;" parent="1" source="tffMLPbtxx34B7XqvIBA-6" target="tffMLPbtxx34B7XqvIBA-8" edge="1">
          <mxGeometry relative="1" as="geometry" />
        </mxCell>
        <mxCell id="tffMLPbtxx34B7XqvIBA-6" value="liczba =&amp;nbsp;PobierzZKolejki(Kolejka)" style="whiteSpace=wrap;html=1;strokeWidth=2;" parent="1" vertex="1">
          <mxGeometry x="97.5" y="440" width="185" height="60" as="geometry" />
        </mxCell>
        <mxCell id="tffMLPbtxx34B7XqvIBA-15" value="TAK" style="edgeStyle=orthogonalEdgeStyle;rounded=0;orthogonalLoop=1;jettySize=auto;html=1;" parent="1" source="tffMLPbtxx34B7XqvIBA-8" target="tffMLPbtxx34B7XqvIBA-14" edge="1">
          <mxGeometry relative="1" as="geometry" />
        </mxCell>
        <mxCell id="tffMLPbtxx34B7XqvIBA-18" value="NIE" style="edgeStyle=orthogonalEdgeStyle;rounded=0;orthogonalLoop=1;jettySize=auto;html=1;" parent="1" source="tffMLPbtxx34B7XqvIBA-8" target="tffMLPbtxx34B7XqvIBA-17" edge="1">
          <mxGeometry relative="1" as="geometry" />
        </mxCell>
        <mxCell id="tffMLPbtxx34B7XqvIBA-8" value="liczba mod 2 == 0" style="rhombus;whiteSpace=wrap;html=1;strokeWidth=2;" parent="1" vertex="1">
          <mxGeometry x="130" y="530" width="120" height="110" as="geometry" />
        </mxCell>
        <mxCell id="tffMLPbtxx34B7XqvIBA-28" style="edgeStyle=none;rounded=0;orthogonalLoop=1;jettySize=auto;html=1;exitX=0;exitY=0.5;exitDx=0;exitDy=0;entryX=0;entryY=0.5;entryDx=0;entryDy=0;" parent="1" source="tffMLPbtxx34B7XqvIBA-14" edge="1" target="ti8bBpOAtPQ81vVUXoVw-8">
          <mxGeometry relative="1" as="geometry">
            <mxPoint x="190" y="250" as="targetPoint" />
            <Array as="points">
              <mxPoint x="-280" y="730" />
              <mxPoint x="-280" y="590" />
              <mxPoint x="-280" y="330" />
            </Array>
          </mxGeometry>
        </mxCell>
        <mxCell id="tffMLPbtxx34B7XqvIBA-14" value="PolozNaStos(StosParzystych, liczba)&lt;br&gt;iloscLiczbParzystych = iloscLiczbParzystych + 1" style="whiteSpace=wrap;html=1;strokeWidth=2;" parent="1" vertex="1">
          <mxGeometry x="60" y="700" width="265" height="60" as="geometry" />
        </mxCell>
        <mxCell id="tffMLPbtxx34B7XqvIBA-16" style="edgeStyle=orthogonalEdgeStyle;rounded=0;orthogonalLoop=1;jettySize=auto;html=1;exitX=0.5;exitY=1;exitDx=0;exitDy=0;" parent="1" edge="1">
          <mxGeometry relative="1" as="geometry">
            <mxPoint x="350" y="615" as="sourcePoint" />
            <mxPoint x="350" y="615" as="targetPoint" />
          </mxGeometry>
        </mxCell>
        <mxCell id="tffMLPbtxx34B7XqvIBA-17" value="PolozNaStos(StosNieparzystych, liczba)&lt;br&gt;iloscLiczbNieparzystych = iloscLiczbNieparzystych+ 1" style="whiteSpace=wrap;html=1;strokeWidth=2;" parent="1" vertex="1">
          <mxGeometry x="-240" y="555" width="295" height="60" as="geometry" />
        </mxCell>
        <mxCell id="tffMLPbtxx34B7XqvIBA-30" value="" style="endArrow=none;html=1;rounded=0;exitX=0;exitY=0.5;exitDx=0;exitDy=0;" parent="1" source="tffMLPbtxx34B7XqvIBA-17" edge="1">
          <mxGeometry width="50" height="50" relative="1" as="geometry">
            <mxPoint x="120" y="640" as="sourcePoint" />
            <mxPoint x="-280" y="585" as="targetPoint" />
          </mxGeometry>
        </mxCell>
        <mxCell id="tffMLPbtxx34B7XqvIBA-34" value="" style="edgeStyle=none;rounded=0;orthogonalLoop=1;jettySize=auto;html=1;" parent="1" source="tffMLPbtxx34B7XqvIBA-31" target="tffMLPbtxx34B7XqvIBA-33" edge="1">
          <mxGeometry relative="1" as="geometry" />
        </mxCell>
        <mxCell id="tffMLPbtxx34B7XqvIBA-31" value="i = 0" style="whiteSpace=wrap;html=1;strokeWidth=2;" parent="1" vertex="1">
          <mxGeometry x="310" y="300" width="60" height="60" as="geometry" />
        </mxCell>
        <mxCell id="tffMLPbtxx34B7XqvIBA-36" value="TAK" style="edgeStyle=none;rounded=0;orthogonalLoop=1;jettySize=auto;html=1;exitX=0.5;exitY=1;exitDx=0;exitDy=0;entryX=0.5;entryY=0;entryDx=0;entryDy=0;" parent="1" source="tffMLPbtxx34B7XqvIBA-33" target="tffMLPbtxx34B7XqvIBA-35" edge="1">
          <mxGeometry relative="1" as="geometry" />
        </mxCell>
        <mxCell id="tffMLPbtxx34B7XqvIBA-40" style="edgeStyle=none;rounded=0;orthogonalLoop=1;jettySize=auto;html=1;exitX=1;exitY=0.5;exitDx=0;exitDy=0;entryX=0;entryY=0.5;entryDx=0;entryDy=0;entryPerimeter=0;" parent="1" source="tffMLPbtxx34B7XqvIBA-33" target="tffMLPbtxx34B7XqvIBA-39" edge="1">
          <mxGeometry relative="1" as="geometry" />
        </mxCell>
        <mxCell id="tffMLPbtxx34B7XqvIBA-33" value="StosParzystych != nil &amp;amp;&amp;amp; StosNieparzystych != nil" style="rhombus;whiteSpace=wrap;html=1;strokeWidth=2;" parent="1" vertex="1">
          <mxGeometry x="440" y="255" width="190" height="150" as="geometry" />
        </mxCell>
        <mxCell id="tffMLPbtxx34B7XqvIBA-37" style="edgeStyle=none;rounded=0;orthogonalLoop=1;jettySize=auto;html=1;exitX=0.194;exitY=0.025;exitDx=0;exitDy=0;exitPerimeter=0;" parent="1" source="tffMLPbtxx34B7XqvIBA-35" edge="1">
          <mxGeometry relative="1" as="geometry">
            <mxPoint x="400" y="330" as="targetPoint" />
          </mxGeometry>
        </mxCell>
        <mxCell id="tffMLPbtxx34B7XqvIBA-35" value="&lt;div style=&quot;line-height: 120%;&quot;&gt;TablicaParzysteNieparzyste[i][Parzysta] = ZdejmijZeStosu(StosParzystych)&lt;/div&gt;TablicaParzysteNieparzyste[i][Nieparzysta] = ZdejmijZeStosu(StosNieparzystych)&lt;br&gt;i = i + 1" style="whiteSpace=wrap;html=1;strokeWidth=2;align=center;" parent="1" vertex="1">
          <mxGeometry x="315" y="465" width="440" height="65" as="geometry" />
        </mxCell>
        <mxCell id="tffMLPbtxx34B7XqvIBA-39" value="KONIEC" style="strokeWidth=2;html=1;shape=mxgraph.flowchart.start_1;whiteSpace=wrap;" parent="1" vertex="1">
          <mxGeometry x="700" y="300" width="100" height="60" as="geometry" />
        </mxCell>
        <mxCell id="SnsUbLCSZcXVaI-WfpS3-3" style="edgeStyle=orthogonalEdgeStyle;rounded=0;orthogonalLoop=1;jettySize=auto;html=1;exitX=0.5;exitY=1;exitDx=0;exitDy=0;" edge="1" parent="1" source="SnsUbLCSZcXVaI-WfpS3-1" target="ti8bBpOAtPQ81vVUXoVw-8">
          <mxGeometry relative="1" as="geometry" />
        </mxCell>
        <mxCell id="SnsUbLCSZcXVaI-WfpS3-1" value="wczytaj: Kolejka" style="shape=parallelogram;perimeter=parallelogramPerimeter;whiteSpace=wrap;html=1;fixedSize=1;strokeWidth=2;" vertex="1" parent="1">
          <mxGeometry x="130" y="170" width="120" height="60" as="geometry" />
        </mxCell>
      </root>
    </mxGraphModel>
  </diagram>
</mxfile>
